<svg width="1132" viewBox="0 0 1132 804" xmlns="http://www.w3.org/2000/svg" xmlns:ev="http://www.w3.org/2001/xml-events" xmlns:xlink="http://www.w3.org/1999/xlink" height="804"><defs/><g transform="translate(5.5,5.5)" id="page1"><rect width="1123" x="0" fill="none" height="794" y="0"/><g transform="translate(533.000000,217.416300)" id="shape1"><path stroke-width="1" fill="#ffffff" d="M185.0,84.6L185.0,.0L.0,.0L.0,84.6L185.0,84.6z" stroke="#101843" fill-rule="nonzero"/><text xml:space="preserve" style="fill:#191919;font-family:微软雅黑,PingFang SC,Mircrosoft YaHei,Arial;font-size:10.00pt"><tspan x="5.7" style="font-family:微软雅黑,PingFang SC,Mircrosoft YaHei,Arial" y="46.4">es-node1（Coordinating）</tspan></text></g><path stroke-width="1" fill="#ffffff" transform="translate(238.500000,406.416300)" d="M185.0,198.6L185.0,.0L.0,.0L.0,198.6L185.0,198.6z" stroke="#101843" fill-rule="nonzero" id="shape2"/><g transform="translate(271.000000,406.417000)" id="shape3"><text xml:space="preserve" style="fill:#191919;font-family:微软雅黑,PingFang SC,Mircrosoft YaHei,Arial;font-size:10.00pt"><tspan x="29.2" style="font-family:微软雅黑,PingFang SC,Mircrosoft YaHei,Arial" y="19.6">es-node2</tspan></text></g><g transform="translate(271.000000,437.416300)" id="shape4"><path stroke-width="1" fill="#ffffff" d="M120.0,39.6L120.0,.0L.0,.0L.0,39.6L120.0,39.6z" stroke="#101843" fill-rule="nonzero"/><text xml:space="preserve" style="fill:#191919;font-family:微软雅黑,PingFang SC,Mircrosoft YaHei,Arial;font-size:10.00pt"><tspan x="4.4" style="font-family:微软雅黑,PingFang SC,Mircrosoft YaHei,Arial" y="23.9">主分片1（索引1）</tspan></text></g><g transform="translate(271.000000,522.416300)" id="shape5"><path stroke-width="1" fill="#ffffff" d="M120.0,44.6L120.0,.0L.0,.0L.0,44.6L120.0,44.6z" stroke="#101843" fill-rule="nonzero"/><text xml:space="preserve" style="fill:#191919;font-family:微软雅黑,PingFang SC,Mircrosoft YaHei,Arial;font-size:10.00pt"><tspan x="4.4" style="font-family:微软雅黑,PingFang SC,Mircrosoft YaHei,Arial" y="26.6">分片 2 的副本分片</tspan></text></g><path stroke-width="1" fill="#ffffff" transform="translate(533.000000,406.416300)" d="M185.0,198.6L185.0,.0L.0,.0L.0,198.6L185.0,198.6z" stroke="#101843" fill-rule="nonzero" id="shape6"/><g transform="translate(565.500000,406.417000)" id="shape7"><text xml:space="preserve" style="fill:#191919;font-family:微软雅黑,PingFang SC,Mircrosoft YaHei,Arial;font-size:10.00pt"><tspan x="29.2" style="font-family:微软雅黑,PingFang SC,Mircrosoft YaHei,Arial" y="19.6">es-node3</tspan></text></g><g transform="translate(565.500000,437.416300)" id="shape8"><path stroke-width="1" fill="#ffffff" d="M120.0,39.6L120.0,.0L.0,.0L.0,39.6L120.0,39.6z" stroke="#101843" fill-rule="nonzero"/><text xml:space="preserve" style="fill:#191919;font-family:微软雅黑,PingFang SC,Mircrosoft YaHei,Arial;font-size:10.00pt"><tspan x="4.4" style="font-family:微软雅黑,PingFang SC,Mircrosoft YaHei,Arial" y="24.1">主分片2（索引1）</tspan></text></g><g transform="translate(565.500000,522.416300)" id="shape9"><path stroke-width="1" fill="#ffffff" d="M120.0,44.6L120.0,.0L.0,.0L.0,44.6L120.0,44.6z" stroke="#101843" fill-rule="nonzero"/><text xml:space="preserve" style="fill:#191919;font-family:微软雅黑,PingFang SC,Mircrosoft YaHei,Arial;font-size:10.00pt"><tspan x="4.4" style="font-family:微软雅黑,PingFang SC,Mircrosoft YaHei,Arial" y="26.6">分片 1 的副本分片</tspan></text></g><path stroke-width="1" fill="#ffffff" transform="translate(831.000000,406.416300)" d="M185.0,198.6L185.0,.0L.0,.0L.0,198.6L185.0,198.6z" stroke="#101843" fill-rule="nonzero" id="shape10"/><g transform="translate(863.500000,406.417000)" id="shape11"><text xml:space="preserve" style="fill:#191919;font-family:微软雅黑,PingFang SC,Mircrosoft YaHei,Arial;font-size:10.00pt"><tspan x="29.2" style="font-family:微软雅黑,PingFang SC,Mircrosoft YaHei,Arial" y="19.6">es-node4</tspan></text></g><g transform="translate(863.500000,437.416300)" id="shape12"><path stroke-width="1" fill="#ffffff" d="M120.0,39.6L120.0,.0L.0,.0L.0,39.6L120.0,39.6z" stroke="#101843" fill-rule="nonzero"/><text xml:space="preserve" style="fill:#191919;font-family:微软雅黑,PingFang SC,Mircrosoft YaHei,Arial;font-size:10.00pt"><tspan x="4.4" style="font-family:微软雅黑,PingFang SC,Mircrosoft YaHei,Arial" y="24.1">主分片3（索引1）</tspan></text></g><g transform="translate(863.500000,522.416300)" id="shape13"><path stroke-width="1" fill="#ffffff" d="M120.0,44.6L120.0,.0L.0,.0L.0,44.6L120.0,44.6z" stroke="#101843" fill-rule="nonzero"/><text xml:space="preserve" style="fill:#191919;font-family:微软雅黑,PingFang SC,Mircrosoft YaHei,Arial;font-size:10.00pt"><tspan x="4.4" style="font-family:微软雅黑,PingFang SC,Mircrosoft YaHei,Arial" y="26.6">分片 3 的副本分片</tspan></text></g><g transform="translate(606.500000,94.000000)" id="group14"><path stroke-width="1" fill="#ffffff" transform="translate(0.000000,19.327700)" d="M8.8,.0L29.1,.0C34.0,.0,38.0,3.6,38.0,8.1L38.0,22.6C38.0,27.0,34.0,30.7,29.1,30.7L8.8,30.7C3.9,30.7,.0,27.0,.0,22.6L.0,8.1C.0,3.6,3.9,.0,8.8,.0z" stroke="#101843" fill-rule="nonzero" id="shape15"/><path stroke-width="1" fill="#ffffff" transform="translate(7.327300,-0.029200)" d="M-0.0,11.4C-0.0,5.1,5.2,.0,11.6,.0C18.1,.0,23.3,5.1,23.3,11.4C23.3,17.6,18.1,22.7,11.6,22.7C5.2,22.7,-0.0,17.6,-0.0,11.4z" stroke="#101843" fill-rule="nonzero" id="shape16"/></g><g transform="translate(625.500000,145.000000)" id="shape17"><path stroke-width="1" fill="none" d="M.0,.0L.0,66.4" stroke="#191919"/><path stroke-linecap="round" stroke-width="1" fill="#191919" d="M3.0,66.4L.0,72.4L-3.0,66.4L3.0,66.4" stroke="#191919"/></g><g transform="translate(598.000000,165.208000)" id="shape18"><text xml:space="preserve" style="fill:#191919;font-family:微软雅黑,PingFang SC,Mircrosoft YaHei,Arial;font-size:10.00pt"><tspan x="39.6" style="font-family:微软雅黑,PingFang SC,Mircrosoft YaHei,Arial" y="19.6">写请求</tspan></text></g><g transform="translate(625.500000,302.000000)" id="shape19"><path stroke-width="1.333330035209656" fill="none" d="M.0,.0L-228.7,151.4" stroke="#191919"/><path stroke-linecap="round" stroke-width="1" fill="#191919" d="M-226.8,154.3L-234.5,155.2L-230.6,148.5L-226.8,154.3" stroke="#191919"/></g><g transform="translate(540.750000,323.208000)" id="shape20"><text xml:space="preserve" style="fill:#191919;font-family:微软雅黑,PingFang SC,Mircrosoft YaHei,Arial;font-size:10.00pt"><tspan x="20.6" style="font-family:微软雅黑,PingFang SC,Mircrosoft YaHei,Arial" y="31.1">路由到对应主分片所在节点</tspan></text></g><g transform="translate(391.000000,457.208000)" id="shape21"><path stroke-width="1.333330035209656" fill="none" d="M.0,.0L168.3,84.4" stroke="#191919"/><path stroke-linecap="round" stroke-width="1" fill="#191919" d="M169.9,81.3L174.5,87.5L166.8,87.5L169.9,81.3" stroke="#191919"/></g><g transform="translate(394.000000,490.208000)" id="shape22"><text xml:space="preserve" style="fill:#191919;font-family:微软雅黑,PingFang SC,Mircrosoft YaHei,Arial;font-size:10.00pt"><tspan x="46.4" style="font-family:微软雅黑,PingFang SC,Mircrosoft YaHei,Arial" y="19.6">同步</tspan></text></g></g></svg>